<?xml version="1.0" encoding="UTF-8" standalone="no"?>
<!-- Created with Inkscape (http://www.inkscape.org/) -->

<svg
   xmlns:dc="http://purl.org/dc/elements/1.1/"
   xmlns:cc="http://creativecommons.org/ns#"
   xmlns:rdf="http://www.w3.org/1999/02/22-rdf-syntax-ns#"
   xmlns:svg="http://www.w3.org/2000/svg"
   xmlns="http://www.w3.org/2000/svg"
   xmlns:sodipodi="http://sodipodi.sourceforge.net/DTD/sodipodi-0.dtd"
   xmlns:inkscape="http://www.inkscape.org/namespaces/inkscape"
   width="48px"
   height="48px"
   id="svg2985"
   version="1.1"
   inkscape:version="0.48.2 r9819"
   sodipodi:docname="warnme.svg">
  <defs
     id="defs2987" />
  <sodipodi:namedview
     id="base"
     pagecolor="#ffffff"
     bordercolor="#666666"
     borderopacity="1.0"
     inkscape:pageopacity="0.0"
     inkscape:pageshadow="2"
     inkscape:zoom="7"
     inkscape:cx="24"
     inkscape:cy="24"
     inkscape:current-layer="layer1"
     showgrid="true"
     inkscape:grid-bbox="true"
     inkscape:document-units="px"
     inkscape:window-width="1600"
     inkscape:window-height="876"
     inkscape:window-x="0"
     inkscape:window-y="24"
     inkscape:window-maximized="1" />
  <metadata
     id="metadata2990">
    <rdf:RDF>
      <cc:Work
         rdf:about="">
        <dc:format>image/svg+xml</dc:format>
        <dc:type
           rdf:resource="http://purl.org/dc/dcmitype/StillImage" />
      </cc:Work>
    </rdf:RDF>
  </metadata>
  <g
     id="layer1"
     inkscape:label="Layer 1"
     inkscape:groupmode="layer">
    <path
       sodipodi:type="arc"
       style="fill:#00b5c8;fill-opacity:1;stroke:#000000;stroke-opacity:1"
       id="path2993"
       sodipodi:cx="24.071428"
       sodipodi:cy="23.928572"
       sodipodi:rx="22.357143"
       sodipodi:ry="22.785715"
       d="m 46.428572,23.928572 a 22.357143,22.785715 0 1 1 -44.7142871,0 22.357143,22.785715 0 1 1 44.7142871,0 z" />
    <path
       style="fill:#ffff00;fill-opacity:1;stroke:#000000;stroke-opacity:1"
       id="path3026"
       d="M 23.420165,24.937968 C 22.997709,24.672747 22.601505,24.370437 22.220352,24.049476 21.89568,23.760817 21.570189,23.47007 21.281344,23.144986 20.989146,22.752425 20.724663,22.338277 20.481191,21.91401 20.137369,21.362744 19.849465,20.779187 19.511556,20.224987 19.14136,19.669582 18.792298,19.100684 18.432131,18.538752 18.155844,18.098493 17.904543,17.643553 17.631769,17.201098 17.326455,16.743145 16.990998,16.306513 16.684622,15.849238 16.356006,15.353888 15.986571,14.88816 15.629155,14.41387 15.312599,13.929998 14.937924,13.490217 14.578426,13.038969 14.261676,12.638239 13.920699,12.257968 13.569984,11.88695 13.232374,11.503119 12.918318,11.099944 12.593749,10.705296 12.208087,10.271043 11.838011,9.8233916 11.455583,9.3862898 11.16652,9.0485744 10.841179,8.7443539 10.550258,8.4086853 10.276358,8.0777844 9.9900168,7.757823 9.6956474,7.4451084 9.3840654,7.1148668 9.1473404,6.7292598 8.8955248,6.3544915 8.7510315,6.1217714 8.8213242,6.2406315 8.6849091,5.9977561 c 0,0 1.8271849,-1.0526889 1.8271849,-1.0526889 l 0,0 c 0.132636,0.2331819 0.06533,0.1186264 0.201735,0.3437716 0.243472,0.3668728 0.47331,0.7433215 0.783158,1.0604338 0.294392,0.3155536 0.579546,0.6392208 0.856712,0.9700404 0.296059,0.3312646 0.615213,0.6415909 0.900608,0.9826564 0.37774,0.4426886 0.745385,0.8939133 1.136685,1.3249078 0.325204,0.3893288 0.639896,0.7873488 0.978014,1.1658178 0.350041,0.377808 0.68741,0.766892 1.007578,1.170481 0.366813,0.448488 0.728276,0.901454 1.053864,1.381334 0.359093,0.477938 0.728329,0.948777 1.062609,1.444824 0.306085,0.459688 0.649544,0.893379 0.952186,1.355603 0.280642,0.437736 0.522366,0.897563 0.79563,1.339673 0.354383,0.566663 0.702929,1.136849 1.071443,1.694525 0.340946,0.554803 0.639664,1.134336 0.98486,1.686886 0.237036,0.411736 0.503992,0.80752 0.790408,1.186579 0.282142,0.316911 0.599907,0.600633 0.916217,0.882786 0.373939,0.314362 0.761835,0.6157 1.193942,0.847084 0,0 -1.777578,1.155498 -1.777578,1.155498 z"
       inkscape:connector-curvature="0" />
    <path
       style="fill:#ffff00;fill-opacity:1;stroke:#000000;stroke-width:1.17856169;stroke-opacity:1"
       id="path3044"
       d="m 23.652238,25.643011 c 1.087994,-0.959546 2.308434,-1.677871 3.480618,-2.481155 0.6945,-0.465564 2.018033,-1.335696 -1.133825,0.776092 -0.08334,0.05583 0.163455,-0.118083 0.245076,-0.177327 0.142482,-0.103425 0.284702,-0.207341 0.427072,-0.310979 1.120257,-0.826095 4.706585,-3.202001 0.771487,-0.550724 -0.06834,0.04605 0.1353,-0.09491 0.202506,-0.143227 0.068,-0.04889 0.135409,-0.09892 0.203112,-0.148391 0.06472,-0.04708 0.128194,-0.09665 0.194174,-0.141255 0.715689,-0.48381 1.432744,-0.964818 2.150721,-1.443905 0.225711,-0.150613 0.463232,-0.260797 0.684666,-0.422098 0.811572,-0.486293 2.526172,-1.671054 -0.908052,0.651954 1.056769,-0.747824 2.105031,-1.530686 3.217711,-2.158485 0.463968,-0.222182 0.913007,-0.482162 1.370173,-0.722485 0.424899,-0.20543 0.840703,-0.43532 1.263107,-0.647182 0.427122,-0.258566 0.84828,-0.530483 1.284218,-0.768082 0.389818,-0.255086 0.81724,-0.410929 1.218555,-0.636061 0.300817,-0.192141 0.646093,-0.189727 0.967272,-0.291806 0.05131,-0.01427 0.102612,-0.02854 0.153924,-0.0428 0,0 -1.830372,1.642152 -1.830372,1.642152 l 0,0 c -0.05169,0.01367 -0.103383,0.02736 -0.155081,0.04103 -0.323196,0.06715 -0.640434,0.15261 -0.934935,0.331411 -0.405285,0.199371 -0.813725,0.390876 -1.203488,0.630849 -0.434894,0.252727 -0.858052,0.533169 -1.299289,0.77047 -0.416183,0.219574 -0.838827,0.421475 -1.253813,0.644154 -0.453563,0.249348 -0.914368,0.478215 -1.366332,0.731174 -0.303897,0.186942 -0.124671,0.07422 -0.431859,0.273402 -0.06973,0.04522 -0.278018,0.182645 -0.209335,0.13528 3.147045,-2.170248 2.023116,-1.405193 1.348221,-0.908219 -1.001691,0.685589 -1.993229,1.384307 -3.015475,2.024241 -0.167561,0.104219 -0.338443,0.198979 -0.507362,0.300015 -0.06042,0.03613 -0.238956,0.150503 -0.180565,0.11 0.832274,-0.577275 2.478578,-1.692865 1.57521,-1.080457 -1.257121,0.971148 -4.928243,3.329976 -0.986596,0.688536 0.06723,-0.04506 -0.126933,0.104167 -0.190399,0.15626 -1.122338,0.837535 -2.285176,1.596306 -3.438615,2.372843 -0.794638,0.535549 -0.571508,0.386 1.391003,-0.952725 0.09078,-0.06192 -0.182002,0.122983 -0.271733,0.186984 -0.213241,0.152099 -0.301568,0.220773 -0.501382,0.393176 -0.06452,0.05567 -0.126988,0.11454 -0.190483,0.171813 0,0 -2.139835,0.995525 -2.139835,0.995525 z"
       inkscape:connector-curvature="0" />
    <text
       xml:space="preserve"
       style="font-size:10px;font-style:italic;font-weight:normal;line-height:125%;letter-spacing:0px;word-spacing:0px;fill:#000000;fill-opacity:1;stroke:none;font-family:Sans;-inkscape-font-specification:Sans Italic"
       x="21.857143"
       y="6.8571429"
       id="text3046"
       sodipodi:linespacing="125%"><tspan
         sodipodi:role="line"
         id="tspan3048"></tspan></text>
    <text
       xml:space="preserve"
       style="font-size:10px;font-style:italic;font-weight:normal;line-height:125%;letter-spacing:0px;word-spacing:0px;fill:#000000;fill-opacity:1;stroke:none;font-family:Sans;-inkscape-font-specification:Sans Italic"
       x="24.857143"
       y="12.857143"
       id="text3050"
       sodipodi:linespacing="125%"><tspan
         sodipodi:role="line"
         id="tspan3052"></tspan></text>
    <path
       style="fill:#ffff00;fill-opacity:1;stroke:#000000;stroke-opacity:1"
       id="path3056"
       d="m 20.567241,7.4378546 c 0.398221,-0.3457612 0.794032,-0.6933014 1.20226,-1.0272937 0.753718,-0.606205 1.622128,-1.0150029 2.463584,-1.5017907 0,0 -1.641424,1.3269753 -1.641424,1.3269753 l 0,0 c 3.036546,-1.764229 1.757349,-1.0750163 1.12897,-0.6106259 -0.404731,0.3308418 -0.812071,0.657228 -1.191495,1.017682 0,0 -1.961895,0.795053 -1.961895,0.795053 z"
       inkscape:connector-curvature="0" />
    <path
       style="fill:#ffff00;fill-opacity:1;stroke:#000000;stroke-opacity:1"
       id="path3058"
       d="m 25.10877,5.4688762 c 0.105315,0.453643 0.176918,0.9128994 0.221637,1.3761264 0.03796,0.4120651 0.03806,0.8261843 0.03868,1.2396008 -0.0033,0.384826 0.01449,0.7700369 -0.01135,1.1542183 -0.05573,0.4285414 -0.217574,0.8283233 -0.383701,1.2234753 -0.171263,0.36394 -0.335143,0.731124 -0.501628,1.097259 -0.115902,0.298335 -0.243379,0.591854 -0.372466,0.884671 0,0 -1.92012,0.8765 -1.92012,0.8765 l 0,0 c 0.137434,-0.287946 0.262876,-0.583027 0.373943,-0.882088 0.158728,-0.369708 0.329503,-0.734894 0.506199,-1.096187 0.162905,-0.378067 0.330878,-0.754831 0.406516,-1.162393 0.04712,-0.3767346 0.0123,-0.7592221 0.02538,-1.1381846 -0.0021,-0.4082126 -0.0027,-0.8167773 -0.02941,-1.224315 -0.03577,-0.4492599 -0.09208,-0.898605 -0.21715,-1.3329154 0,0 1.863473,-1.0157678 1.863473,-1.0157678 z"
       inkscape:connector-curvature="0" />
    <path
       style="fill:#ffff00;fill-opacity:1;stroke:#000000;stroke-opacity:1"
       id="path3060"
       d="m 27.395173,6.4549989 c 0.323458,-0.414486 0.640395,-0.8280805 1.041848,-1.1705063 0.7694,-0.5366618 0.421628,-0.3023568 2.158268,-1.2423035 0.08847,-0.047885 0.249419,-0.060831 0.347155,-0.05076 0.142131,0.014646 0.20246,0.052992 0.331491,0.109258 0.315923,0.1486407 0.620884,0.3380651 0.883335,0.5688968 0.327371,0.2775713 0.552737,0.6359876 0.748344,1.0126707 0.173664,0.3550159 0.271059,0.740677 0.360088,1.1239517 0.06701,0.321675 0.106013,0.6499302 0.0927,0.9784765 -0.01643,0.3544459 -0.189002,0.6428208 -0.395878,0.9186144 -0.246224,0.2956102 -0.506596,0.5822554 -0.805716,0.8250991 -0.849527,0.5959984 -1.734234,1.1909464 -2.747192,1.4396654 -0.05402,0.01877 -0.107688,0.03861 -0.162065,0.05632 -0.160298,0.05223 -0.162757,0.03989 -0.314065,0.113645 -0.05028,0.02451 -0.195297,0.109159 -0.146766,0.08135 1.756073,-1.006295 2.196453,-1.2926281 1.512329,-0.853491 -0.310706,0.210083 -0.567622,0.479481 -0.808746,0.763597 -0.227648,0.282635 -0.418585,0.594331 -0.557136,0.929666 -0.09751,0.314143 -0.162183,0.639101 -0.214963,0.963667 -0.02438,0.144329 -0.08819,0.593921 0.179248,0.50357 0.313193,-0.06717 0.605965,-0.19806 0.9118,-0.291581 0.411486,-0.133139 0.820657,-0.273687 1.233427,-0.402913 0.795696,-0.325868 2.558237,-1.380829 -0.659395,0.463903 0.161915,-0.11216 0.09305,-0.05175 0.211597,-0.175368 0,0 1.939444,-0.856859 1.939444,-0.856859 l 0,0 c -0.08357,0.20073 -0.02463,0.10867 -0.181318,0.273254 -0.96959,0.559332 -1.917913,1.194989 -2.97545,1.585501 -0.412155,0.13485 -0.82427,0.269827 -1.236254,0.405196 -0.31791,0.106637 -0.64339,0.263483 -0.986295,0.216701 -0.336222,-0.160823 -0.384648,-0.441382 -0.33576,-0.789779 0.04826,-0.337648 0.120514,-0.67121 0.196729,-1.00331 0.121772,-0.359939 0.312661,-0.685407 0.529802,-0.996371 0.24243,-0.291564 0.4805,-0.585401 0.787416,-0.813844 0.826396,-0.636368 1.746324,-1.1820155 2.752397,-1.4616325 0.16569,-0.052056 0.32925,-0.1071333 0.486896,-0.1809104 0.04655,-0.021784 0.181276,-0.096825 0.136981,-0.070762 -1.939733,1.1413318 -2.186023,1.2997788 -1.518744,0.8772888 0.324435,-0.201928 0.573257,-0.4906111 0.829034,-0.7712496 0.20156,-0.2372415 0.408636,-0.4821817 0.442688,-0.8039372 0.04461,-0.3064658 -0.01007,-0.6197825 -0.05738,-0.9233876 C 31.326532,7.4393192 31.232572,7.0705948 31.075604,6.7286557 30.890031,6.3764608 30.682768,6.0404497 30.366181,5.7891281 30.10941,5.5861382 29.828106,5.4033833 29.520937,5.2870633 c -0.153625,-0.036899 -0.26685,-0.045817 -0.420308,0.00524 -0.05377,0.017888 -0.205773,0.093841 -0.157261,0.064557 1.146987,-0.6923589 2.251283,-1.2932298 1.446276,-0.8534614 -0.422752,0.3023866 -0.754229,0.6908982 -1.042507,1.1222604 0,0 -1.951964,0.8293416 -1.951964,0.8293416 z"
       inkscape:connector-curvature="0" />
    <path
       style="fill:#ffff00;fill-opacity:1;stroke:#000000;stroke-opacity:1"
       id="path3064"
       d="m 25.471302,32.545161 c -0.253337,0.43093 -0.551367,0.832004 -0.868127,1.217786 -0.311522,0.37727 -0.587433,0.781488 -0.893111,1.163466 -0.346294,0.388204 -0.658202,0.8015 -0.930601,1.244341 -0.249165,0.381365 -0.452782,0.78666 -0.584399,1.222719 -0.102952,0.31575 -0.18303,0.635972 -0.224035,0.965512 -0.04112,0.286121 -0.02582,0.564451 0.03855,0.844763 0.08855,0.365526 0.208953,0.718256 0.395073,1.045352 0.211611,0.331179 0.471621,0.625639 0.785886,0.86121 0.276459,0.18954 0.595258,0.24413 0.921901,0.267074 0.326025,0.01304 0.652424,0.0073 0.978593,0.0044 0.625725,-0.126314 2.355156,-1.227416 -1.247742,0.791151 -0.04649,0.02605 0.09132,-0.05559 0.132622,-0.08926 0.05194,-0.04235 0.09745,-0.09203 0.14618,-0.138039 0.262283,-0.32159 0.452674,-0.698439 0.627115,-1.073419 0.169979,-0.357408 0.248843,-0.73967 0.28816,-1.130447 0.05107,-0.331777 -0.039,-0.594045 -0.252904,-0.84269 -0.208919,-0.203192 -0.482164,-0.2474 -0.760295,-0.272092 -0.331654,-0.02882 -0.638344,-0.03317 -0.925608,0.150062 0.561526,-0.319413 1.119734,-0.64473 1.684577,-0.958237 0.04215,-0.02339 -0.07954,0.05496 -0.115331,0.08725 -0.142029,0.128116 -0.229782,0.304817 -0.307531,0.475738 -0.04266,0.125466 -0.101319,0.24224 -0.171564,0.353951 0,0 -1.969006,0.806392 -1.969006,0.806392 l 0,0 c 0.122378,-0.0584 0.180241,-0.135164 0.218459,-0.269979 0.358243,-1.056476 1.191083,-1.248386 2.317294,-1.813467 0.32599,-0.105679 0.661164,-0.09536 0.999153,-0.05486 0.320828,0.05468 0.618199,0.157539 0.84384,0.405443 0.236822,0.28898 0.379674,0.608179 0.329604,0.990691 -0.03372,0.410479 -0.09419,0.816045 -0.263803,1.195897 -0.168907,0.392724 -0.366179,0.773164 -0.597585,1.132953 -0.633279,0.815539 -1.661178,1.40226 -2.687571,1.498429 -0.331042,0.0013 -0.66291,0.0057 -0.993036,-0.02299 -0.35432,-0.04897 -0.691202,-0.148861 -0.979775,-0.370282 -0.32582,-0.263913 -0.607656,-0.573799 -0.830118,-0.930755 -0.195093,-0.342853 -0.327951,-0.710211 -0.426959,-1.091923 -0.08455,-0.300563 -0.116426,-0.599768 -0.07591,-0.911365 0.03272,-0.341782 0.09857,-0.67745 0.216948,-1.000923 0.119739,-0.455377 0.306132,-0.88661 0.569325,-1.278707 0.269185,-0.447848 0.556133,-0.884942 0.913666,-1.269082 0.315475,-0.376214 0.597572,-0.776251 0.894164,-1.16692 0.318409,-0.3693 0.623966,-0.751933 0.867448,-1.175969 0,0 1.936453,-0.863198 1.936453,-0.863198 z"
       inkscape:connector-curvature="0" />
    <path
       style="fill:#ffff00;fill-opacity:1;stroke:#000000;stroke-opacity:1"
       id="path3066"
       d="m 36.991529,21.875149 c 0.968372,-0.619062 1.91195,-1.339347 3.013902,-1.690385 0.37372,-0.108497 0.643312,-0.112594 0.993202,0.05992 0.367605,0.196203 0.589988,0.520491 0.787375,0.874847 0.173219,0.359607 0.323387,0.729434 0.443242,1.11011 0.129821,0.360223 0.03864,0.699789 -0.07585,1.04763 -0.118442,0.376612 -0.348425,0.692518 -0.597305,0.992359 -0.731556,0.884419 -1.650474,1.204946 -2.709131,1.792285 -0.46143,0.01388 -0.554747,-0.303276 -0.392581,-0.681838 0.503726,-0.67017 1.612673,-1.044147 2.17156,-1.349053 0.145869,-0.07958 0.330661,-0.02991 0.477631,0.0062 0.368869,0.119612 0.643148,0.385871 0.889561,0.673095 0.217123,0.263581 0.309538,0.578697 0.357442,0.909947 0.03125,0.289931 0.02764,0.582065 0.02667,0.873235 0.02868,0.345387 -0.06056,0.668476 -0.161303,0.994643 -0.131828,0.402869 -0.381732,0.741271 -0.650823,1.061895 -0.264817,0.293529 -0.531206,0.58857 -0.839266,0.837492 -0.832258,0.573207 -1.671059,1.251471 -2.690088,1.365029 -0.320125,0.02464 -0.641645,0.018 -0.962395,0.01435 -0.406921,-3.55e-4 -0.807748,0.02416 -1.203948,-0.07904 -0.440391,-0.178886 -0.638122,-0.569902 -0.797788,-0.990555 -0.01476,-0.06729 -0.02951,-0.134583 -0.04427,-0.201874 0,0 1.863478,-0.992957 1.863478,-0.992957 l 0,0 c 0.0083,0.05724 0.01669,0.114478 0.02504,0.171716 0.128373,0.361495 0.287818,0.700459 0.687053,0.809524 0.389175,0.06481 0.784103,0.03728 1.177318,0.04329 0.316926,-0.003 0.636058,0.0023 0.950151,-0.04655 0.142791,-0.02947 0.278593,-0.06269 0.411913,-0.123837 0.04656,-0.02136 0.180722,-0.09644 0.136572,-0.07047 -1.944991,1.144421 -2.186303,1.299514 -1.51916,0.877575 0.335485,-0.208634 0.590909,-0.509726 0.862447,-0.793043 0.26902,-0.298246 0.532646,-0.607822 0.684392,-0.985069 0.106333,-0.302122 0.205795,-0.606645 0.181956,-0.930878 0.0017,-0.282931 0.0066,-0.56639 -0.01361,-0.848821 -0.03137,-0.293082 -0.0964,-0.57229 -0.291584,-0.804006 -0.220553,-0.25079 -0.466259,-0.487216 -0.809741,-0.542519 -0.133417,3.65e-4 -0.138396,-0.01015 -0.267747,0.03319 -0.04678,0.01568 -0.178637,0.08306 -0.136327,0.05767 2.948895,-1.769277 2.031843,-1.223024 1.422719,-0.825383 -0.187648,0.202018 -0.243274,0.350578 0.117823,0.233172 -2.97976,1.756979 -1.528502,1.054748 -0.89761,0.333613 0.248183,-0.27715 0.493646,-0.563792 0.628257,-0.916119 0.103579,-0.3065 0.244424,-0.60581 0.135985,-0.931799 -0.108686,-0.369007 -0.257988,-0.723457 -0.417555,-1.073162 -0.175731,-0.3154 -0.379641,-0.600905 -0.721091,-0.750722 -0.303425,-0.101976 -0.599047,-0.04411 -0.8962,0.06337 -0.0598,0.02399 -0.120545,0.04577 -0.179412,0.07197 -0.06494,0.02891 -0.252851,0.129647 -0.191776,0.09328 0.52742,-0.31409 1.060671,-0.618283 1.591385,-0.926774 0.07207,-0.04189 -0.144785,0.08274 -0.21544,0.126973 -0.06988,0.04374 -0.136743,0.09215 -0.206016,0.136855 -0.05894,0.03804 -0.119062,0.07422 -0.178594,0.111329 0,0 -1.970462,0.778323 -1.970462,0.778323 z"
       inkscape:connector-curvature="0" />
    <path
       style="fill:#ffff00;fill-opacity:1;stroke:#000000;stroke-opacity:1"
       id="path3072"
       d="M 8.7122868,23.881005 C 8.2732597,23.843589 7.84108,23.772344 7.40694,23.699671 6.9786863,23.59728 6.7324395,23.446579 6.5151168,23.061802 6.3650797,22.698039 6.3490852,22.304358 6.3414129,21.916527 c -0.00435,-0.366975 -0.00254,-0.733984 -0.00147,-1.100973 -0.028512,-0.434207 0.1188358,-0.822671 0.300068,-1.207301 0.2070631,-0.395722 0.441261,-0.778137 0.7021616,-1.140664 0.6526341,-0.864824 1.6571102,-1.215866 2.5992293,-1.757565 0.2766605,-0.135602 0.5808025,-0.168276 0.8838525,-0.18613 0.338055,-0.03908 0.63886,0.01295 0.948165,0.149652 0.41186,0.256024 0.699594,0.638152 0.927082,1.058161 0.144553,0.33374 0.255351,0.684308 0.320972,1.042206 0.06993,0.347439 0.156469,0.691044 0.235264,1.036466 0.07113,0.355734 0.09583,0.717963 0.10998,1.07972 0.02676,0.391167 2.97e-4,0.767517 -0.106047,1.144775 -0.118343,0.398352 -0.27179,0.780287 -0.460199,1.150111 -0.161611,0.406839 -0.335446,0.808078 -0.513986,1.208235 -0.188421,0.374175 -0.332723,0.767921 -0.539059,1.132811 -0.213373,0.365298 -0.474265,0.697439 -0.750689,1.016316 -0.786262,0.778234 -1.8076632,1.335471 -2.867883,1.650949 -0.421359,0.140677 -0.8606344,0.210095 -1.2913331,0.315357 -0.155159,0.03663 -0.3128331,0.05902 -0.4690888,0.09006 0,0 1.6938433,-1.278674 1.6938433,-1.278674 l 0,0 c 0.1521186,-0.02602 0.3037616,-0.0547 0.453586,-0.09209 0.4280744,-0.100326 0.8640245,-0.171273 1.2777374,-0.325751 0.7509522,-0.263892 1.5131122,-0.814101 -1.2179492,0.798145 -0.056199,0.03318 0.1156068,-0.0609 0.170677,-0.09592 0.1469779,-0.09346 0.1782134,-0.129838 0.3073181,-0.2437 0.2789031,-0.306604 0.5499302,-0.62257 0.7625365,-0.98014 0.2293068,-0.350275 0.3665348,-0.741103 0.5583488,-1.111805 0.177628,-0.401746 0.369939,-0.796555 0.502508,-1.215825 0.186899,-0.363004 0.367036,-0.723594 0.477331,-1.119537 0.126107,-0.352725 0.160187,-0.702881 0.129732,-1.076681 -0.0081,-0.350057 -0.02288,-0.701321 -0.08869,-1.046144 -0.07543,-0.349279 -0.1687,-0.694185 -0.241307,-1.044177 -0.0559,-0.338328 -0.157136,-0.668725 -0.281744,-0.987689 -0.198683,-0.381069 -0.459344,-0.731843 -0.853644,-0.927453 -0.294092,-0.09806 -0.5898093,-0.102694 -0.8968885,-0.06675 -0.291104,0.03453 -0.5738289,0.09993 -0.8275279,0.254385 0.5568308,-0.322172 1.115763,-0.640738 1.6704922,-0.966515 0.046187,-0.02712 -0.098098,0.04354 -0.1444786,0.07033 -0.2110883,0.121933 -0.3867869,0.304344 -0.5408707,0.489959 -0.2717735,0.347955 -0.5039967,0.723561 -0.7241052,1.105835 -0.1757448,0.354856 -0.3610754,0.708146 -0.3291172,1.117419 -0.00355,0.366405 -0.010036,0.732819 -0.00745,1.099251 0.00725,0.353048 0.00674,0.71522 0.1296022,1.051187 0.1767017,0.31768 0.4391267,0.416483 0.7867049,0.482416 0.4334576,0.07749 0.8685457,0.133636 1.3078017,0.167446 0,0 -1.7305872,1.224757 -1.7305872,1.224757 z"
       inkscape:connector-curvature="0" />
  </g>
</svg>
